<svg width="27" height="27" viewBox="0 0 27 27" fill="none" xmlns="http://www.w3.org/2000/svg">
<path d="M13.1251 0.624859C15.3963 0.607867 17.6341 1.17281 19.6251 2.26586C21.5614 3.30756 23.1961 4.83137 24.3711 6.68986C25.5297 8.49934 26.1402 10.6053 26.1291 12.7539C26.1481 15.3562 25.2582 17.8835 23.6131 19.8999C22.0324 21.945 19.8646 23.4585 17.4001 24.2379C14.802 25.0968 12.0063 25.1581 9.37309 24.4139L4.98009 26.8749V22.2459C2.80098 20.6709 1.22894 18.3953 0.52709 15.7999C-0.0983057 13.4657 0.0351297 10.9931 0.90809 8.73986C1.76959 6.39912 3.33543 4.38294 5.39009 2.96886C7.6577 1.39341 10.3644 0.573178 13.1251 0.624859ZM14.4731 16.9139L21.6211 9.41386L15.1211 12.9879L11.7811 9.47186L4.68809 17.0309L11.1331 13.3999L14.4731 16.9139Z" fill="white"/>
</svg>
