<svg width="50" height="48" viewBox="0 0 50 48" fill="none" xmlns="http://www.w3.org/2000/svg">
<path d="M46.6316 25.9349H47.9236L47.9113 26.067C47.4036 32.0337 44.6896 37.5649 40.2728 41.6412C35.8293 45.742 30.0505 48 23.9991 48C10.7654 48 0 37.2347 0 23.9989C0 10.7654 10.7653 0 23.9991 0C29.8296 0 35.4494 2.11351 39.8249 5.95423C44.1344 9.73734 46.9473 14.9239 47.7565 20.5666H49.2301L47.1125 24.6097L44.995 20.5666H46.4542C44.7845 9.56613 35.1565 1.28775 23.9992 1.28775C11.4753 1.28775 1.28811 11.4772 1.28811 23.9988C1.28811 36.5227 11.4753 46.712 23.9992 46.712C35.8437 46.712 45.5688 37.827 46.6214 26.0463L46.6316 25.9349Z" fill="#ef6837"/>
<path d="M20.257 19.7467L20.2153 19.8225L19.9995 20.217L15.1674 29.0543H11.2626L11.1234 25.708L9.38015 29.0543H5.47618L4.01218 19.7816L8.5781 19.7467L8.89211 23.8255L10.8442 19.7467H13.9122L13.9817 23.8952L16.0738 19.7467H20.257Z" fill="#ef6837"/>
<path d="M44.3097 19.7474L36.432 32.1576H31.4828L33.9923 28.4611L32.6633 20.1581L32.6074 19.8176L32.5971 19.7474H36.7807L37.1997 23.8607L39.5691 19.7474H44.3097Z" fill="#ef6837"/>
<path d="M32.5972 19.7474L32.6075 19.8176L32.6631 20.1581L29.4312 35.9758H30.492L29.8233 38.6485L29.3177 38.5205L29.8233 36.4958H28.7913L34.7189 7.49194H22.7856V6.97198H35.3566L32.7458 19.7474H32.5972Z" fill="#ef6837"/>
<path d="M32.6221 19.7474L32.6075 19.8176L32.5972 19.7474H32.6221Z" fill="#ef6837"/>
<path d="M32.5972 19.7474L32.6075 19.8176L32.6632 20.1581L32.7458 19.7474H32.5972Z" fill="#ef6837"/>
<path d="M25.4232 29.0039L25.4376 28.9318L25.6089 28.1041L25.6048 28.1063L25.3674 28.2568C24.0651 29.0825 22.6948 29.1959 21.5122 28.5726C20.4947 28.0381 19.7476 27.004 19.4813 25.8214C19.4235 25.5717 19.3884 25.3138 19.3781 25.0537C19.376 25.0455 19.376 25.0351 19.376 25.0269L19.3511 24.3499L19.3408 24.0879L19.3387 24.0405L19.3201 24.1312L19.2913 24.2612C19.2913 24.2633 19.2913 24.2674 19.2892 24.2715L19.2149 24.6347L19.1157 25.0992L19.0332 25.4975L18.9652 25.8215C18.9714 25.863 18.9796 25.9022 18.9878 25.9413C19.0023 25.9971 19.0147 26.0508 19.0291 26.1045C19.0415 26.1561 19.056 26.2055 19.0704 26.2551L19.1014 26.3542L19.1552 26.1045L19.2129 25.8258L19.2232 25.7762C19.4359 26.8267 20.0076 27.7721 20.8083 28.4036C20.8557 28.4407 20.9031 28.4759 20.9527 28.5089C21.0951 28.614 21.2437 28.707 21.3986 28.7874C22.5792 29.4087 23.9289 29.3468 25.2271 28.6223C25.2374 28.6182 25.2477 28.612 25.2581 28.6058L25.1363 29.196L25.1259 29.2456H29.1299L29.1155 29.3178L29.0907 29.4395H29.3404L29.3631 29.3178L29.4271 29.0041H25.4232V29.0039Z" fill="#ef6837"/>
<path d="M29.6624 28.8098H25.6604L25.8895 27.6975L25.8008 27.7533L25.2642 28.0938C24.6141 28.5045 23.9514 28.7295 23.3055 28.7687C23.2829 28.7708 23.2601 28.7728 23.2395 28.7728C22.6719 28.7954 22.1167 28.6717 21.6029 28.4012C20.4202 27.78 19.6235 26.453 19.57 25.0185L19.541 24.255L19.5306 23.9722L19.5203 23.7369V23.7121L19.5141 23.5573L19.5079 23.3675L19.5038 23.2581L19.4934 23.0042L19.4913 22.9609L19.4831 22.7359L19.4749 22.4903L19.4728 22.4634L19.4625 22.5108V22.5128L19.3573 23.0124V23.0145L18.9899 24.7606V24.7627L18.8847 25.2622L18.862 25.3695L16.4122 37.0284H15.372L14.5836 40.1842H28.4179L29.2083 37.0284H28.0113L29.5365 29.4394L29.6624 28.8098ZM27.2435 37.6578H28.4014L27.9266 39.5546H15.3885L15.8631 37.6578H16.9239L19.2272 26.6925L19.252 26.5726C19.6462 27.6149 20.3789 28.4693 21.3097 28.9585C21.8608 29.2474 22.4553 29.3961 23.062 29.4022C23.6688 29.4125 24.2901 29.2784 24.901 29.0018C24.9298 28.9915 24.9567 28.9771 24.9857 28.9647L24.8886 29.4394H28.8947L27.2435 37.6578Z" fill="#ef6837"/>
<path d="M19.3822 23.8343L20.6169 17.9601L16.228 17.8208L21.4474 8.07806H33.6323L31.2588 19.8882H27.307L26.9895 21.4233L26.8289 21.2426C26.5397 20.9171 25.4821 19.8555 24.0096 19.8555H24.0082C22.8625 19.856 21.7188 20.4908 20.6091 21.7421C20.2836 22.1097 20.0173 22.5072 19.8182 22.9235L19.3822 23.8343ZM16.6265 17.5908L20.9131 17.7267L20.8522 18.0204L19.9841 22.1505C20.1173 21.9543 20.2652 21.7641 20.4275 21.581C21.5851 20.2754 22.7897 19.6131 24.008 19.6128H24.0095C25.3761 19.6128 26.4014 20.4605 26.8479 20.9092L27.1094 19.6454H31.06L33.336 8.32062H21.5925L16.6265 17.5908Z" fill="#ef6837"/>
<path d="M21.3325 7.88409L15.9107 18.0034L20.3812 18.1457L20.0446 19.7473L19.9126 20.3788L19.4731 22.4635L19.4627 22.5109V22.513L19.3576 23.0124V23.0145L18.9902 24.7606V24.7626L18.8849 25.2623L18.8623 25.3695L18.8891 25.3138L18.9944 25.0951L19.0831 24.9092L19.11 24.8516L19.2152 24.6347L19.2648 24.5296L19.3018 24.4491L19.304 24.447L19.3514 24.3499L19.4174 24.2096L19.4278 24.1889L19.5309 23.9722L19.6507 23.7225L19.9934 23.0062C20.1853 22.6058 20.4412 22.2241 20.7549 21.8711C21.8179 20.672 22.9013 20.0589 23.9828 20.0487H24.0096C25.4028 20.0487 26.4099 21.06 26.6843 21.3716L27.0374 21.7678L27.1013 21.8401L27.4646 20.0817H31.417L33.869 7.88409H21.3325ZM20.3646 21.2789L21.0416 18.0593L21.1489 17.5411L16.9448 17.4069L21.7083 8.51354H33.101L30.9008 19.4523H26.9525L26.7276 20.5316C26.7069 20.5131 26.6863 20.4965 26.6636 20.4759C26.1167 20.0136 25.1838 19.4192 24.0074 19.4192C23.995 19.4192 23.9805 19.4192 23.9681 19.4213C22.7278 19.4336 21.5079 20.0961 20.3419 21.386L20.3646 21.2789Z" fill="#ef6837"/>
<path d="M24.0093 19.6133H24.0073C23.1528 19.6133 22.3045 19.9393 21.4748 20.5874C22.2818 19.9724 23.1053 19.6628 23.9329 19.6628H23.9845C25.2268 19.6835 26.1803 20.414 26.6427 20.8536L26.8016 21.0042L26.8139 20.9423L26.8263 20.8887C26.3704 20.4368 25.355 19.6133 24.0093 19.6133ZM23.0291 29.1588C22.9817 29.1588 22.9339 29.1588 22.8887 29.1547C22.1953 29.132 21.5348 28.9132 20.9528 28.5087C21.0952 28.6138 21.2438 28.7067 21.3986 28.7872C22.5793 29.4085 23.9289 29.3466 25.2271 28.6221L25.2395 28.5623L25.2498 28.5169L25.0228 28.6366C24.3581 28.9853 23.6812 29.1566 23.0291 29.1588Z" fill="#ef6837"/>
<path d="M24.0094 19.6133H24.0071C23.1528 19.6133 22.3045 19.9393 21.4748 20.5874C22.2818 19.9724 23.1053 19.6628 23.9329 19.6628H23.9845C25.227 19.6835 26.1804 20.4139 26.6427 20.8536L26.8016 21.0043L26.8139 20.9423L26.8263 20.8887C26.3704 20.4368 25.355 19.6133 24.0094 19.6133ZM23.0291 29.1588C22.9817 29.1588 22.934 29.1588 22.8887 29.1547C22.1953 29.132 21.5348 28.9132 20.9528 28.5087C21.0952 28.6138 21.2438 28.7067 21.3987 28.7872C22.5793 29.4085 23.9289 29.3466 25.2272 28.6221L25.2394 28.5623L25.2498 28.5169L25.0228 28.6367C24.3581 28.9853 23.6812 29.1566 23.0291 29.1588ZM25.0228 28.6367C24.3581 28.9854 23.6812 29.1568 23.0291 29.1588C22.9817 29.1588 22.934 29.1588 22.8887 29.1547C22.1953 29.132 21.5348 28.9132 20.9528 28.5087C21.0952 28.6138 21.2438 28.7067 21.3987 28.7872C22.5793 29.4085 23.9289 29.3466 25.2272 28.6221L25.2394 28.5623L25.2498 28.5169L25.0228 28.6367ZM24.0094 19.6133H24.0071C23.1528 19.6133 22.3045 19.9393 21.4748 20.5874C22.2818 19.9724 23.1053 19.6628 23.9329 19.6628H23.9845C25.227 19.6835 26.1804 20.4139 26.6427 20.8536L26.8016 21.0043L26.8139 20.9423L26.8263 20.8887C26.3704 20.4368 25.355 19.6133 24.0094 19.6133Z" fill="#ef6837"/>
<path fill-rule="evenodd" clip-rule="evenodd" d="M26.708 20.2595L26.874 19.4523V19.4526H31.5367L31.4108 20.0821L31.2497 20.8947H32.209V21.1821H31.1927L31.1145 21.5765H32.209V21.864H31.0575L30.9793 22.2582H32.209V22.5456H30.9223L30.8441 22.94H32.2088V23.2278H30.7871L30.7089 23.6222H32.2088V23.909H30.652L30.5738 24.3035H32.2088V24.5912H30.5167L30.4385 24.9856H32.2088V25.2724H30.3817L30.3034 25.6669H32.2088V25.9547H30.2464L30.1682 26.3489H32.209V26.6363H30.1112L30.0331 27.0306H32.209V27.318H29.9761L29.8979 27.7124H32.209V27.9999H29.8409L29.7627 28.3941H32.209V28.6815H29.7057L29.5554 29.4397H24.8105L24.9012 29.0021L24.9094 28.9629C24.2923 29.2518 23.667 29.3984 23.0623 29.4025C22.241 29.4127 21.4547 29.1683 20.7727 28.6815H17.9786V28.3941H20.4139C20.2787 28.2733 20.1488 28.1419 20.0246 27.9999H17.9786V27.7124H19.7941C19.7016 27.5866 19.6149 27.4549 19.5346 27.318H17.9786V27.0306H19.3792C19.3246 26.9206 19.2739 26.8078 19.2275 26.6926C19.2196 26.674 19.2118 26.6552 19.2042 26.6363H17.9786V26.3489H19.0999L19.0705 26.2552L19.0683 26.2476C19.0546 26.2005 19.0409 26.1534 19.0292 26.1045C19.0209 26.0737 19.0133 26.0429 19.0056 26.0117C19.0009 25.9928 18.9962 25.9738 18.9913 25.9547H17.9788V25.6669H18.9347C18.9331 25.6559 18.9315 25.6448 18.9301 25.6337C18.9114 25.5286 18.8991 25.4211 18.8888 25.3138C18.8872 25.3007 18.8855 25.2862 18.8849 25.2724H17.9786V24.9856H18.8689C18.8652 24.855 18.8666 24.7234 18.8736 24.5912H17.9788V24.3035H18.8973C18.9121 24.1723 18.9323 24.0407 18.9583 23.909H17.9788V23.6222H19.024C19.0584 23.4905 19.0986 23.359 19.145 23.2278H17.9786V22.94H19.257C19.3132 22.8079 19.3758 22.6763 19.4452 22.5456H17.9786V22.2582H19.6086C19.6242 22.233 19.6402 22.2078 19.6566 22.1828C19.6873 22.1308 19.7218 22.0789 19.7565 22.0267C19.759 22.023 19.7615 22.0193 19.7639 22.0156L19.7652 22.0137C19.7874 21.9814 19.8097 21.9489 19.8361 21.9165C19.8479 21.8993 19.8603 21.8817 19.8731 21.864H17.9786V21.5765H20.0991C20.1016 21.5736 20.104 21.5707 20.1065 21.5678L20.1085 21.5654C20.1388 21.5291 20.1692 21.4927 20.2035 21.4564V21.4564C20.2035 21.4544 20.2035 21.4544 20.2056 21.4523C20.2572 21.3924 20.3109 21.3346 20.3645 21.2789C20.3949 21.2462 20.4253 21.2139 20.4558 21.1821H17.9786V20.8947H20.744C20.8742 20.7711 21.0051 20.6551 21.1365 20.5469H20.3631V20.2595H21.5125C22.3028 19.7017 23.1127 19.4193 23.931 19.4193C23.9433 19.4193 23.9558 19.4193 23.9681 19.4214C24.9494 19.4298 25.7584 19.8514 26.3126 20.2595H26.708ZM26.0485 20.2595C25.5257 19.9186 24.8288 19.6133 24.0094 19.6133H24.0075C23.3119 19.6133 22.6203 19.8295 21.9395 20.2595H21.9539C22.6067 19.8624 23.2686 19.6628 23.9332 19.6628H23.9849C24.7376 19.6752 25.3843 19.9484 25.8799 20.2595H26.0485ZM26.288 20.5469H26.4438C26.5972 20.6704 26.7256 20.7887 26.8266 20.8887L26.8252 20.8947H26.6864L26.6431 20.8536C26.5458 20.7612 26.4268 20.6558 26.288 20.5469ZM25.031 20.2595C24.7159 20.1379 24.364 20.0557 23.9825 20.0488H23.933C23.5635 20.0488 23.1933 20.1192 22.8236 20.2595H25.031ZM22.2268 20.5469H25.6133C25.7996 20.6594 25.9648 20.7796 26.1063 20.8947H21.71C21.8819 20.7636 22.0542 20.6476 22.2268 20.5469ZM21.5289 20.5469H21.5276C21.5101 20.5602 21.4926 20.5737 21.4752 20.5874C21.4931 20.5737 21.511 20.5602 21.5289 20.5469ZM21.3609 21.1821C21.2233 21.3038 21.086 21.4353 20.949 21.5765H26.7893L26.6079 21.3716C26.565 21.3232 26.5044 21.2579 26.4275 21.1821H21.3609ZM27.159 21.1821L27.0769 21.5765H30.4721L30.5503 21.1821H27.159ZM30.6073 20.8947L30.6763 20.5469H27.2911L27.2188 20.8947H30.6073ZM30.7333 20.2595H27.3509L27.3879 20.0817H30.7686L30.7333 20.2595ZM30.415 21.864H20.6825C20.6804 21.8664 20.6783 21.8687 20.6762 21.8711C20.5634 21.9982 20.4596 22.1274 20.3644 22.2582H30.3368L30.415 21.864ZM30.2798 22.5456H20.1704C20.0892 22.6759 20.0159 22.8075 19.9502 22.94H30.2016L30.2798 22.5456ZM30.1445 23.2278H25.7928C25.748 23.1845 25.697 23.1496 25.6405 23.1249C25.4442 23.0391 25.2112 23.0838 24.9855 23.2278H19.82C19.7661 23.3588 19.7194 23.4904 19.6795 23.6222H24.5679C24.5006 23.7095 24.438 23.8056 24.3815 23.909H19.6044C19.5784 24.0243 19.5571 24.1396 19.541 24.2549C19.5386 24.2711 19.5364 24.2873 19.5343 24.3035H24.2075C24.1751 24.4002 24.1487 24.4967 24.1311 24.5912H19.5061C19.4977 24.7236 19.4955 24.8552 19.4993 24.9856H24.0931C24.0938 25.0877 24.1047 25.1843 24.1254 25.2724H19.5174C19.5303 25.4057 19.5494 25.5373 19.5744 25.6669H24.3297C24.3754 25.7119 24.4271 25.7475 24.4851 25.7729C24.6824 25.8587 24.9175 25.8131 25.144 25.6669H29.6606L29.7388 25.2724H25.5601C25.6266 25.1851 25.6893 25.0891 25.7457 24.9856H29.7957L29.874 24.5912H25.9188C25.9513 24.4937 25.977 24.3979 25.9955 24.3035H29.9311L30.0093 23.909H26.0327C26.0318 23.807 26.0203 23.7103 25.9993 23.6222H30.0662L30.1445 23.2278ZM29.6035 25.9547H19.6401C19.6758 26.089 19.7178 26.2206 19.7657 26.3489H29.5253L29.6035 25.9547ZM29.4683 26.6363H19.8854C19.9482 26.7726 20.0179 26.9043 20.094 27.0306H29.39L29.4683 26.6363ZM29.333 27.318H20.2844C20.341 27.3956 20.4001 27.4706 20.4615 27.5428C20.5106 27.6004 20.5618 27.657 20.6151 27.7124H25.7896L25.8132 27.6975L25.8099 27.7124H29.2548L29.333 27.318ZM29.1978 27.9999H25.7503L25.6694 28.3941H29.1195L29.1978 27.9999ZM29.0625 28.6815H25.6104L25.584 28.8099H29.0371L29.0625 28.6815ZM24.935 28.6815H25.1177C23.8532 29.3495 22.5461 29.3911 21.3986 28.7872C21.3348 28.7541 21.2722 28.7189 21.2105 28.6815H21.2256C21.7379 28.9757 22.3015 29.1356 22.8886 29.1547C22.934 29.1588 22.9815 29.1588 23.029 29.1588C23.6525 29.1567 24.2986 29.0001 24.935 28.6815ZM24.644 28.3941C24.8218 28.3095 25.0025 28.2098 25.1856 28.0937L25.3343 27.9999H20.9248C21.1037 28.1479 21.2995 28.2813 21.5104 28.3941H24.644ZM22.2482 28.6815H23.8437C23.6603 28.7259 23.4808 28.7544 23.3055 28.7686C23.2829 28.7707 23.2601 28.7727 23.2395 28.7727C22.8897 28.7947 22.558 28.7602 22.2482 28.6815Z" fill="#ef6837"/>
</svg>
